<svg xmlns="http://www.w3.org/2000/svg" xmlns:xlink="http://www.w3.org/1999/xlink" viewBox="0 0 71 81" fill="#fff" fill-rule="evenodd" stroke="#000" stroke-linecap="round" stroke-linejoin="round"><use xlink:href="#A" x=".5" y=".5"/><symbol id="A" overflow="visible"><g fill="#2a3282" stroke="none"><path d="M0 70.476h23.269v3.81H0zm46.537 0h23.269v3.81H46.537zM32.964 57.905h3.878v4.952h-3.878zm7.95 6.857H28.698c-1.939 0-3.684 1.905-3.684 3.809v7.619c0 1.905 1.551 3.81 3.684 3.81h12.216c1.939 0 3.684-1.905 3.684-3.809v-7.619c0-1.905-1.745-3.809-3.684-3.809zm-.194 11.429H29.086h0v-7.619H40.72h0 0v7.619z"/><path d="M43.629 0c-2.909 0-4.654.952-6.205 2.476h0 0l-5.817 6.476c-.388.381-1.163.762-1.551.762H5.623C2.521 9.714 0 12.19 0 15.238v38.286c0 3.048 2.521 5.524 5.623 5.524h58.753c3.102 0 5.623-2.476 5.623-5.524V12.19c0-2.095-1.163-4.571-2.521-6.095l-3.878-3.619C62.05.952 60.111 0 57.396 0H43.629h0z"/></g></symbol></svg>